<svg xmlns="http://www.w3.org/2000/svg" width="226.622" height="102.914" viewBox="0 0 226.622 102.914">
  <path id="EWlement" d="M226,58.528c-3.04,0-25.3-22.18-44.629-39.414C169.247,8.3,158.224-.56,154.5.028c-9.5,1.5,19.5,81,14,82-3.472.631-26.677-27.954-45.1-51.663-4.691-6.037-9.211-11.948-12.9-16.836-3.167-2.5-2.1,11.3,27.5,86.5-3.8-7.532-15.123-18.585-24.594-27.071-7.13-6.388-13.177-11.235-13.177-11.235s-5.843-3.955-9-5.951c-4.212-2.666-8.557-5.254-13.273-7.922-4.445-2.515-9.274-5.1-14.174-7.6A470.759,470.759,0,0,0,0,13.528" transform="translate(226 100.93) rotate(180)" fill="none" stroke="#fff" stroke-width="4"/>
</svg>
