<svg xmlns="http://www.w3.org/2000/svg" width="60" height="60" viewBox="0 0 60 60">
  <g id="Ellipse_9" data-name="Ellipse 9" fill="#fff">
    <path d="M30,0A30,30,0,1,1,6.811,10.966,30,30,0,0,1,30,0Z" stroke="none"/>
    <path d="M 30 1 C 27.76276016235352 1 25.53120040893555 1.255359649658203 23.3673095703125 1.758979797363281 C 21.27178955078125 2.246688842773438 19.22885131835938 2.969390869140625 17.29526138305664 3.906978607177734 C 13.52431869506836 5.735500335693359 10.16799163818359 8.393398284912109 7.588909149169922 11.59360122680664 C 3.278411865234375 16.93838119506836 1 23.3032112121582 1 30 C 1 33.91542053222656 1.766620635986328 37.71318054199219 3.278549194335938 41.28779983520508 C 4.739128112792969 44.74098205566406 6.830268859863281 47.84246063232422 9.493900299072266 50.50609970092773 C 12.15753936767578 53.16973114013672 15.2590217590332 55.26087188720703 18.71220016479492 56.72145080566406 C 22.28681945800781 58.23337936401367 26.08457946777344 59 30 59 C 33.91542053222656 59 37.71318054199219 58.23337936401367 41.28779983520508 56.72145080566406 C 44.74098205566406 55.26087188720703 47.84246063232422 53.16973114013672 50.50609970092773 50.50609970092773 C 53.16973114013672 47.84246063232422 55.26087188720703 44.74098205566406 56.72145080566406 41.28779983520508 C 58.23337936401367 37.71318054199219 59 33.91542053222656 59 30 C 59 26.08457946777344 58.23337936401367 22.28681945800781 56.72145080566406 18.71220016479492 C 55.26087188720703 15.2590217590332 53.16973114013672 12.15753936767578 50.50609970092773 9.493900299072266 C 47.84246063232422 6.830268859863281 44.74098205566406 4.739128112792969 41.28779983520508 3.278549194335938 C 37.71318054199219 1.766620635986328 33.91542053222656 1 30 1 M 30 0 C 46.56853866577148 0 60 13.43146133422852 60 30 C 60 46.56853866577148 46.56853866577148 60 30 60 C 13.43146133422852 60 0 46.56853866577148 0 30 C 0 22.87553024291992 2.483478546142578 16.33110046386719 6.810508728027344 10.9658317565918 C 12.13109970092773 4.363880157470703 20.55593109130859 0 30 0 Z" stroke="none" fill="rgba(25,25,25,0.1)"/>
  </g>
</svg>
