<svg xmlns="http://www.w3.org/2000/svg" width="226.622" height="102.917" viewBox="0 0 226.622 102.917">
  <path id="EWlement" d="M226,58.528c-5,0-62-60-71.5-58.5s19.5,81,14,82c-3.287.6-24.262-24.994-42.143-47.872-5.811-7.436-11.43-14.767-15.857-20.628-3.167-2.5-2.1,11.3,27.5,86.5a60.941,60.941,0,0,0-3.972-6.692c-5.751-8.53-14.495-17.049-25.058-25.234-2.158-1.673-4.614-3.485-7.144-5.273C69.494,39.981,25.2,21.779,0,13.528" transform="translate(226 100.93) rotate(180)" fill="none" stroke="#fff" stroke-width="4"/>
</svg>
